<svg xmlns="http://www.w3.org/2000/svg" xmlns:xlink="http://www.w3.org/1999/xlink" version="1.1" x="0px" y="0px" viewBox="0 0 100 125" enable-background="new 0 0 100 100" xml:space="preserve"><g><g><path class="old_lady" d="M66.701,13.372c-0.707,0-1.406,0.036-2.1,0.09C63.508,7.234,58.076,2.5,51.533,2.5c-7.33,0-13.272,5.942-13.272,13.272    c0,4.388,2.13,8.276,5.411,10.693c-1.029,1.72-1.87,3.565-2.495,5.505c-1.369-0.188-2.765-0.292-4.184-0.292    c-16.852,0-30.512,13.66-30.512,30.51V97.5h61.022V66.986c14.416-0.426,26.014-12.279,26.014-26.797    C93.518,25.402,81.488,13.372,66.701,13.372z M66.701,62.189c-12.15,0-22-9.85-22-22c0-1.764,0.214-3.476,0.605-5.12    c2.112,0.467,4.305,0.721,6.557,0.721c7.619,0,14.574-2.82,19.896-7.463c4.508,3.934,10.191,6.551,16.455,7.262    c0.316,1.483,0.486,3.022,0.486,4.601C88.701,52.34,78.852,62.189,66.701,62.189z"/></g></g><path d="M89.139,96.956H83.84V78.354c0-2.927-1.633-4.744-4.262-4.744c-2.641,0-4.248,2.936-4.545,3.524l-4.734-2.378  c2.025-4.037,5.494-6.446,9.279-6.446c5.539,0,9.561,4.224,9.561,10.044V96.956z"/><g><g><circle cx="65.831" cy="41.394" r="2.409"/><circle cx="75.274" cy="41.394" r="2.409"/></g><path class="old_lady" d="M70.07,56.167c-5.574,0-10.533-3.339-12.631-8.507l3.125-1.268c1.58,3.89,5.311,6.403,9.506,6.403s7.926-2.513,9.506-6.403   l3.125,1.268C80.604,52.827,75.645,56.167,70.07,56.167z"/></g></svg>